<?xml version="1.0" encoding="UTF-8"?>
<svg id="Capa_1" data-name="Capa 1" xmlns="http://www.w3.org/2000/svg" version="1.1" viewBox="0 0 40.55 39.66">
  <defs>
    <style>
      .cls-1 {
        fill: #6e6e6d;
        fill-rule: evenodd;
        stroke-width: 0px;
      }
    </style>
  </defs>
  <path class="cls-1" d="M36.82,8.38c.49.49.76,1.15.76,1.85s-.27,1.36-.76,1.85l-19.56,19.56c-.26.26-.57.46-.9.6-.34.14-.7.21-1.07.21s-.73-.07-1.07-.21c-.34-.14-.64-.35-.9-.6L3.6,21.91c-.25-.24-.45-.53-.58-.85-.14-.32-.21-.66-.21-1.01,0-.35.06-.69.19-1.01.13-.32.33-.61.57-.86.25-.25.54-.44.86-.57.32-.13.66-.2,1.01-.19.35,0,.69.08,1.01.21.32.14.61.34.85.58l8,8,17.84-17.84c.24-.24.53-.43.85-.57.32-.13.66-.2,1-.2s.68.07,1,.2c.32.13.6.32.85.57Z"/>
</svg>