<?xml version="1.0" encoding="UTF-8"?>
<svg id="Capa_1" data-name="Capa 1" xmlns="http://www.w3.org/2000/svg" version="1.1" viewBox="0 0 40.55 39.66">
  <defs>
    <style>
      .cls-1 {
        fill: #6e6e6d;
        fill-rule: evenodd;
        stroke-width: 0px;
      }
    </style>
  </defs>
  <path class="cls-1" d="M32.93,19.98c0,2.83-.94,5.59-2.69,7.82l-2.02-2.02-1.45,1.45v6.53h6.53l1.45-1.45-1.93-1.93c2.42-2.92,3.75-6.6,3.74-10.4,0-9.01-7.3-16.31-16.31-16.31S3.93,10.97,3.93,19.98s7.3,16.31,16.31,16.31c1.12,0,2.2-.11,3.26-.33l-.72-3.55c-2.57.52-5.23.24-7.63-.81-2.4-1.05-4.41-2.82-5.77-5.06-1.35-2.24-1.98-4.85-1.8-7.46.18-2.61,1.17-5.1,2.83-7.13,1.66-2.03,3.9-3.5,6.42-4.2,2.52-.7,5.2-.61,7.67.27,2.47.88,4.6,2.5,6.11,4.64,1.51,2.14,2.32,4.69,2.32,7.31ZM21.69,12v8.7l-.58.44-5.8,4.35-1.74-2.32,5.22-3.92v-7.25h2.9Z"/>
</svg>