<?xml version="1.0" encoding="UTF-8"?>
<svg id="Capa_1" data-name="Capa 1" xmlns="http://www.w3.org/2000/svg" version="1.1" viewBox="0 0 40.55 39.66">
  <defs>
    <style>
      .cls-1 {
        fill: #6e6e6d;
        stroke-width: 0px;
      }
    </style>
  </defs>
  <path class="cls-1" d="M17.11,8.83h6.97c0-.92-.37-1.81-1.02-2.46-.65-.65-1.54-1.02-2.46-1.02s-1.81.37-2.46,1.02c-.65.65-1.02,1.54-1.02,2.46ZM15.02,8.83c0-1.48.59-2.9,1.63-3.94,1.05-1.05,2.46-1.63,3.94-1.63s2.9.59,3.94,1.63c1.05,1.05,1.63,2.46,1.63,3.94h8.71c.28,0,.54.11.74.31.2.2.31.46.31.74s-.11.54-.31.74c-.2.2-.46.31-.74.31h-1.83l-1.7,20.35c-.12,1.48-.8,2.86-1.89,3.87-1.09,1.01-2.52,1.56-4.01,1.56h-9.72c-1.49,0-2.92-.56-4.01-1.56-1.09-1.01-1.77-2.39-1.89-3.87l-1.7-20.35h-1.83c-.28,0-.54-.11-.74-.31-.2-.2-.31-.46-.31-.74s.11-.54.31-.74c.2-.2.46-.31.74-.31h8.71ZM11.91,31.1c.08.96.52,1.85,1.22,2.5.71.65,1.63,1.01,2.59,1.01h9.72c.96,0,1.89-.36,2.59-1.01.71-.65,1.14-1.54,1.22-2.5l1.68-20.18H10.23l1.68,20.18ZM17.46,15.8c.28,0,.54.11.74.31s.31.46.31.74v11.85c0,.28-.11.54-.31.74-.2.2-.46.31-.74.31s-.54-.11-.74-.31c-.2-.2-.31-.46-.31-.74v-11.85c0-.28.11-.54.31-.74s.46-.31.74-.31ZM24.77,16.84c0-.28-.11-.54-.31-.74-.2-.2-.46-.31-.74-.31s-.54.11-.74.31c-.2.2-.31.46-.31.74v11.85c0,.28.11.54.31.74.2.2.46.31.74.31s.54-.11.74-.31.31-.46.31-.74v-11.85Z"/>
</svg>