<?xml version="1.0" encoding="UTF-8"?>
<svg id="Capa_1" data-name="Capa 1" xmlns="http://www.w3.org/2000/svg" version="1.1" viewBox="0 0 40.55 39.66">
  <defs>
    <style>
      .cls-1 {
        fill: none;
        stroke: #6e6e6d;
        stroke-linecap: round;
        stroke-linejoin: round;
        stroke-width: 1.5px;
      }
    </style>
  </defs>
  <path class="cls-1" d="M16.69,19.16c-.3.3-.53.65-.69,1.03-.16.39-.24.8-.24,1.22v4.49h4.51c.85,0,1.66-.34,2.26-.93l13.31-13.31c.3-.3.53-.65.69-1.03.16-.39.24-.8.24-1.22s-.08-.83-.24-1.22c-.16-.39-.4-.74-.69-1.03l-1.31-1.31c-.3-.3-.65-.53-1.03-.69-.39-.16-.8-.24-1.22-.24s-.83.08-1.22.24c-.39.16-.74.4-1.03.69l-13.31,13.33Z"/>
  <path class="cls-1" d="M36.77,19.82c0,7.56,0,11.34-2.35,13.69-2.35,2.35-6.13,2.35-13.69,2.35s-11.34,0-13.69-2.35c-2.35-2.35-2.35-6.13-2.35-13.69s0-11.34,2.35-13.69c2.35-2.35,6.13-2.35,13.69-2.35"/>
</svg>