<?xml version="1.0" encoding="UTF-8"?>
<svg id="Capa_1" data-name="Capa 1" xmlns="http://www.w3.org/2000/svg" version="1.1" viewBox="0 0 40.55 39.66">
  <defs>
    <style>
      .cls-1 {
        fill: none;
        stroke: #6e6e6d;
        stroke-linecap: round;
        stroke-linejoin: round;
        stroke-width: 1.5px;
      }
    </style>
  </defs>
  <path class="cls-1" d="M28.14,36.18v-8.58c0-.38-.08-.75-.22-1.1-.14-.35-.36-.66-.62-.93-.27-.27-.58-.48-.93-.62-.35-.14-.72-.22-1.1-.22h-9.56c-.38,0-.75.07-1.1.22-.35.14-.66.35-.93.62-.27.27-.48.58-.62.93-.14.35-.22.72-.22,1.1v8.58M28.14,4.29v4.25c0,.38-.08.75-.22,1.1-.14.35-.36.66-.62.93-.27.27-.58.48-.93.62-.35.14-.72.22-1.1.22h-9.56c-.38,0-.75-.07-1.1-.22-.35-.14-.66-.35-.93-.62-.27-.27-.48-.58-.62-.93-.14-.35-.22-.72-.22-1.1V3.78M28.14,4.29c-.75-.34-1.56-.51-2.38-.51h-12.92M28.14,4.29c.62.28,1.19.67,1.68,1.16l4.29,4.27c.53.53.95,1.16,1.24,1.85.29.69.44,1.44.44,2.19v16.69c0,.75-.15,1.5-.44,2.19-.29.69-.71,1.33-1.24,1.86-.53.53-1.17.95-1.86,1.24-.7.29-1.44.43-2.19.43H10.93c-.75,0-1.5-.14-2.19-.43-.7-.29-1.33-.71-1.86-1.24-.53-.53-.96-1.16-1.24-1.86s-.44-1.44-.44-2.19V9.5c0-.75.15-1.5.44-2.19.29-.69.71-1.33,1.24-1.86.53-.53,1.17-.95,1.86-1.24.7-.29,1.44-.43,2.19-.43h1.91"/>
</svg>