<?xml version="1.0" encoding="UTF-8"?>
<svg id="Capa_1" data-name="Capa 1" xmlns="http://www.w3.org/2000/svg" version="1.1" viewBox="0 0 40.55 39.66">
  <defs>
    <style>
      .cls-1 {
        fill: #6e6e6d;
        stroke-width: 0px;
      }
    </style>
  </defs>
  <path class="cls-1" d="M22,4.37c-.6-1.12-2.48-1.12-3.08,0L3.23,33.61c-.14.26-.21.56-.2.85s.09.59.25.84c.16.25.37.46.64.61.26.15.56.22.86.22h31.36c.3,0,.6-.08.86-.22.26-.15.48-.36.64-.61.16-.25.24-.54.25-.84,0-.3-.06-.59-.2-.85L22,4.37ZM22.2,30.97h-3.48v-3.44h3.48v3.44ZM18.71,24.09v-8.6h3.48v8.6s-3.48,0-3.48,0Z"/>
</svg>