<?xml version="1.0" encoding="UTF-8"?>
<svg id="Capa_1" data-name="Capa 1" xmlns="http://www.w3.org/2000/svg" version="1.1" viewBox="0 0 40.55 39.66">
  <defs>
    <style>
      .cls-1 {
        fill: #6e6e6d;
        fill-rule: evenodd;
        stroke-width: 0px;
      }
    </style>
  </defs>
  <path class="cls-1" d="M20.49,2.83c.39,0,.76.15,1.03.43.27.27.43.64.43,1.03v14.09h14.09c.39,0,.76.15,1.03.43.27.27.43.64.43,1.03s-.15.76-.43,1.03c-.27.27-.64.43-1.03.43h-14.09v14.09c0,.39-.15.76-.43,1.03-.27.27-.64.43-1.03.43s-.76-.15-1.03-.43c-.27-.27-.43-.64-.43-1.03v-14.09H4.94c-.39,0-.76-.15-1.03-.43-.27-.27-.43-.64-.43-1.03s.15-.76.43-1.03c.27-.27.64-.43,1.03-.43h14.09V4.29c0-.39.15-.76.43-1.03.27-.27.64-.43,1.03-.43Z"/>
</svg>