<?xml version="1.0" encoding="UTF-8"?>
<svg id="Capa_1" data-name="Capa 1" xmlns="http://www.w3.org/2000/svg" version="1.1" viewBox="0 0 40.55 39.66">
  <defs>
    <style>
      .cls-1 {
        fill: #6e6e6d;
        stroke-width: 0px;
      }
    </style>
  </defs>
  <path class="cls-1" d="M23.94,26.76v-5.84h2.4v4.47l3.9,2.23-1.2,2.06-5.1-2.91ZM31.13,5.87l-2.4-2.38-2.4,2.38-2.4-2.38-2.4,2.38-2.4-2.38-2.4,2.38-2.4-2.38-2.4,2.38-2.4-2.38-2.4,2.38-2.4-2.38v31.68l2.4-2.38,2.4,2.38,2.4-2.38,2.4,2.38,2.53-2.5c.22.3.48.57.75.84,2.1,2.05,4.93,3.19,7.87,3.19,2.94,0,5.77-1.16,7.86-3.21,2.09-2.05,3.29-4.84,3.32-7.75.03-2.92-1.09-5.73-3.14-7.83V3.5l-2.4,2.38ZM17.7,17.75c-.96.9-1.71,1.98-2.29,3.17h-5.87v-3.17h8.16ZM14.45,24.09c-.11.52-.11,1.05-.11,1.58s0,1.06.11,1.58h-4.91v-3.17h4.91ZM28.73,14.59H9.54v-3.17h19.19v3.17ZM33.29,25.67c0,1.01-.19,2.01-.56,2.95-.42.92-.99,1.81-1.71,2.49-.69.71-1.58,1.28-2.51,1.69-.94.36-1.95.55-2.97.55-4.29,0-7.76-3.44-7.76-7.68,0-2.04.82-3.96,2.27-5.43,1.49-1.44,3.42-2.25,5.49-2.25,4.27,0,7.76,3.44,7.76,7.68Z"/>
</svg>